HIERARCHY
ROOT SimulationBone
{
	OFFSET 0.000000 0.000000 0.000000
	CHANNELS 6 Xposition Yposition Zposition Zrotation Yrotation Xrotation 
	JOINT Hips
	{
		OFFSET 0.000000 0.000000 0.000000
		CHANNELS 6 Xposition Yposition Zposition Zrotation Yrotation Xrotation 
		JOINT RightUpLeg
		{
			OFFSET 0.103455 1.857829 10.548506
			CHANNELS 3 Zrotation Yrotation Xrotation
			JOINT RightLeg
			{
				OFFSET 43.499996 -0.000034 0.000000
				CHANNELS 3 Zrotation Yrotation Xrotation
				JOINT RightFoot
				{
					OFFSET 42.372192 0.000015 -0.000006
					CHANNELS 3 Zrotation Yrotation Xrotation
					JOINT RightToe
					{
						OFFSET 17.299999 -0.000000 -0.000002
						CHANNELS 3 Zrotation Yrotation Xrotation
						End Site
						{
							OFFSET 0.000000 0.000000 0.000000
						}
					}
				}
			}
		}
		JOINT LeftUpLeg
		{
			OFFSET 0.103461 1.857828 -10.548504
			CHANNELS 3 Zrotation Yrotation Xrotation
			JOINT LeftLeg
			{
				OFFSET 43.500038 -0.000027 0.000010
				CHANNELS 3 Zrotation Yrotation Xrotation
				JOINT LeftFoot
				{
					OFFSET 42.372265 -0.000004 0.000015
					CHANNELS 3 Zrotation Yrotation Xrotation
					JOINT LeftToe
					{
						OFFSET 17.299992 -0.000005 0.000008
						CHANNELS 3 Zrotation Yrotation Xrotation
						End Site
						{
							OFFSET 0.000000 0.000000 0.000000
						}
					}
				}
			}
		}
		JOINT Spine
		{
			OFFSET 6.901968 -2.603732 0.000000
			CHANNELS 3 Zrotation Yrotation Xrotation
			JOINT Spine1
			{
				OFFSET 12.588099 -0.000001 0.000001
				CHANNELS 3 Zrotation Yrotation Xrotation
				JOINT Spine2
				{
					OFFSET 12.343203 -0.000001 -0.000000
					CHANNELS 3 Zrotation Yrotation Xrotation
					JOINT Neck
					{
						OFFSET 25.832890 -0.000002 0.000001
						CHANNELS 3 Zrotation Yrotation Xrotation
						JOINT Head
						{
							OFFSET 11.766614 0.000006 0.000000
							CHANNELS 3 Zrotation Yrotation Xrotation
							End Site
							{
								OFFSET 0.000000 0.000000 0.000000
							}
						}
					}
					JOINT RightShoulder
					{
						OFFSET 19.745895 -1.480368 6.000105
						CHANNELS 3 Zrotation Yrotation Xrotation
						JOINT RightArm
						{
							OFFSET 11.284125 -0.000008 -0.000020
							CHANNELS 3 Zrotation Yrotation Xrotation
							JOINT RightForeArm
							{
								OFFSET 33.000050 0.000002 0.000037
								CHANNELS 3 Zrotation Yrotation Xrotation
								JOINT RightHand
								{
									OFFSET 25.200003 0.000015 -0.000001
									CHANNELS 3 Zrotation Yrotation Xrotation
									End Site
									{
										OFFSET 0.000000 0.000000 0.000000
									}
								}
							}
						}
					}
					JOINT LeftShoulder
					{
						OFFSET 19.746092 -1.480371 -6.000073
						CHANNELS 3 Zrotation Yrotation Xrotation
						JOINT LeftArm
						{
							OFFSET 11.284139 -0.000016 -0.000008
							CHANNELS 3 Zrotation Yrotation Xrotation
							JOINT LeftForeArm
							{
								OFFSET 33.000092 0.000014 0.000002
								CHANNELS 3 Zrotation Yrotation Xrotation
								JOINT LeftHand
								{
									OFFSET 25.199774 0.000137 0.000428
									CHANNELS 3 Zrotation Yrotation Xrotation
									End Site
									{
										OFFSET 0.000000 0.000000 0.000000
									}
								}
							}
						}
					}
				}
			}
		}
	}
}
MOTION
Frames: 6
Frame Time: 0.016667
74.949528 0.000000 552.461567 0.000000 99.374773 0.000000 -1.953698 89.961090 -0.400491 93.330437 -3.432441 -178.553220 175.985862 7.565902 -178.813424 -23.795618 -5.023309 -15.043176 91.420032 10.523551 2.145600 21.454557 0.003113 0.000019 153.159970 8.645484 -173.290533 -59.572205 -4.194311 6.047676 79.570794 -2.218017 7.854286 21.454555 -0.003097 -0.000002 9.732978 -1.450395 -0.742685 9.475869 -2.834998 -1.602132 9.157487 -2.844758 -1.584981 -6.315526 -0.334186 3.465375 -3.638655 -3.916167 4.205370 140.767928 -75.004585 38.693008 -1.759986 55.154476 16.774918 -56.360138 -15.416002 2.025636 8.974980 -10.066949 27.438933 -176.520010 75.177901 4.949964 -0.775509 -58.305143 -40.583040 -25.927933 14.363060 -1.116328 15.894176 8.084193 0.737601 
74.767578 0.000000 550.728585 0.000000 99.851753 0.000000 -1.979551 89.759680 -0.514684 93.339610 -3.433235 -178.848327 176.986890 7.545392 -178.827375 -24.133401 -4.983890 -14.840303 92.487554 10.300778 1.841409 21.454556 0.003117 0.000018 152.002778 8.352893 -173.503461 -55.870326 -4.067344 5.414193 79.510724 -1.890138 7.395730 21.454557 -0.003101 -0.000001 9.734011 -1.380978 -0.863791 9.479369 -2.686467 -1.838289 9.161069 -2.697653 -1.822040 -6.334917 0.004005 3.371142 -3.631649 -3.984713 4.240494 139.674818 -75.166825 39.789832 -1.932396 54.869708 15.783801 -58.217237 -15.172462 2.076404 8.715052 -10.260550 27.919694 -175.957187 75.201821 5.527050 1.631237 -57.791329 -42.582248 -25.970150 14.284108 -1.112029 15.756595 7.556290 0.017735 
74.563285 0.000000 548.965742 0.000000 100.329573 0.000000 -1.984874 89.529259 -0.639991 93.376240 -3.480064 -179.213112 178.080367 7.601103 -178.856700 -24.400175 -4.922679 -14.672913 93.506095 10.108249 1.525208 21.454557 0.003118 0.000017 151.168369 8.154599 -173.765654 -51.673327 -3.769991 4.657459 79.172055 -1.389398 7.253409 21.454558 -0.003103 0.000001 9.736496 -1.323106 -0.968639 9.485394 -2.562292 -2.042941 9.167171 -2.574715 -2.027449 -6.401865 0.326740 3.284790 -3.614891 -4.032894 4.272841 138.581011 -75.298904 40.889078 -2.087626 54.571113 14.799393 -59.976573 -14.902655 2.123531 8.513334 -10.300099 28.438692 -175.377907 75.243347 6.121120 3.841414 -57.226427 -44.461150 -26.159750 14.236390 -1.112033 15.569652 6.873299 -1.081780 
74.339127 0.000000 547.180775 0.000000 100.808986 0.000000 -1.957933 89.295982 -0.775442 93.423610 -3.541399 -179.640385 179.326823 7.706133 -178.683340 -24.439436 -4.908974 -14.642351 94.428957 10.017892 1.208140 21.454557 0.003113 0.000016 150.673384 8.011271 -174.118363 -46.962085 -3.248823 3.953647 78.412376 -0.821532 7.451313 21.454553 -0.003101 0.000001 9.737817 -1.270860 -1.058646 9.488726 -2.450573 -2.218406 9.170578 -2.464059 -2.203589 -6.546595 0.658270 3.198011 -3.613784 -4.105710 4.314452 137.525146 -75.430193 41.949746 -2.253409 54.293112 13.782641 -61.623308 -14.597071 2.165035 8.303410 -10.236913 28.958160 -174.901618 75.292741 6.609356 5.854743 -56.634265 -46.234758 -26.464551 14.240296 -1.117341 15.402842 6.151462 -2.292295 
74.098160 0.000000 545.375243 0.000000 101.291511 0.000000 -1.903067 89.063667 -0.916361 93.445283 -3.584074 179.883608 -179.312191 7.814694 -178.398271 -24.259857 -4.911249 -14.697978 95.286691 9.996418 0.923611 21.454558 0.003107 0.000016 150.479653 7.880797 -174.432868 -41.760742 -2.576278 3.334947 77.157668 -0.204922 7.910086 21.454550 -0.003098 0.000000 9.726353 -1.215759 -1.138337 9.466051 -2.334267 -2.372781 9.147975 -2.348689 -2.358659 -6.737029 0.971633 3.116528 -3.631509 -4.204987 4.363262 136.686043 -75.538084 42.791972 -2.392483 54.015405 12.787272 -63.153117 -14.259692 2.200862 8.104778 -10.146529 29.440553 -174.538080 75.326382 6.981938 7.668615 -56.004527 -47.881359 -26.852645 14.289983 -1.127052 15.274325 5.410150 -3.333432 
73.839132 0.000000 543.550940 0.000000 101.775036 0.000000 -1.829436 88.834827 -1.053064 93.409951 -3.580748 179.384965 -177.882774 7.889041 -178.105626 -23.886172 -4.892865 -14.779421 96.098446 10.002829 0.691505 21.454557 0.003105 0.000016 150.542999 7.734922 -174.603142 -36.133637 -1.805536 2.812201 75.379162 0.448520 8.551989 21.454551 -0.003098 -0.000001 9.692200 -1.149932 -1.213176 9.397466 -2.197490 -2.516167 9.079459 -2.212783 -2.502860 -6.933540 1.241520 3.044980 -3.668907 -4.321058 4.413292 136.224746 -75.598430 43.254330 -2.468874 53.718352 11.877923 -64.555598 -13.903690 2.231492 7.944199 -10.096455 29.854755 -174.251108 75.323399 7.276150 9.275006 -55.331435 -49.344859 -27.294995 14.369980 -1.139701 15.178622 4.661090 -4.006587 
